<?xml version="1.0" encoding="UTF-8"?>
<svg xmlns="http://www.w3.org/2000/svg" viewBox="0 0 512 512">
  <defs>
    <style><![CDATA[
      .ink { fill: none; stroke: #ffffff; stroke-width: 2.4; stroke-linecap: square; }
      .ink-fill { fill: #ffffff; stroke: #ffffff; stroke-width: 1.2; }
    ]]></style>
  </defs>
  <g id="dial">
  <rect id="dial-bounds" x="0" y="0" width="512" height="512" fill="#000000" opacity="0"/>
  <circle cx="256" cy="256" r="238" fill="none" stroke="#ffffff" stroke-width="5"/>
  <circle cx="256" cy="256" r="222" fill="none" stroke="#ffffff" stroke-width="2"/>
  <line x1="256.0" y1="34.0" x2="256.0" y2="20.0" stroke="#ffffff" stroke-width="3.2" stroke-linecap="butt"/>
  <line x1="279.2" y1="35.2" x2="280.7" y2="21.3" stroke="#ffffff" stroke-width="2.0" stroke-linecap="butt"/>
  <line x1="302.2" y1="38.9" x2="305.1" y2="25.2" stroke="#ffffff" stroke-width="2.0" stroke-linecap="butt"/>
  <line x1="324.6" y1="44.9" x2="328.9" y2="31.6" stroke="#ffffff" stroke-width="2.0" stroke-linecap="butt"/>
  <line x1="346.3" y1="53.2" x2="352.0" y2="40.4" stroke="#ffffff" stroke-width="2.0" stroke-linecap="butt"/>
  <line x1="367.0" y1="63.7" x2="374.0" y2="51.6" stroke="#ffffff" stroke-width="3.2" stroke-linecap="butt"/>
  <line x1="386.5" y1="76.4" x2="394.7" y2="65.1" stroke="#ffffff" stroke-width="2.0" stroke-linecap="butt"/>
  <line x1="404.5" y1="91.0" x2="413.9" y2="80.6" stroke="#ffffff" stroke-width="2.0" stroke-linecap="butt"/>
  <line x1="421.0" y1="107.5" x2="431.4" y2="98.1" stroke="#ffffff" stroke-width="2.0" stroke-linecap="butt"/>
  <line x1="435.6" y1="125.5" x2="446.9" y2="117.3" stroke="#ffffff" stroke-width="2.0" stroke-linecap="butt"/>
  <line x1="448.3" y1="145.0" x2="460.4" y2="138.0" stroke="#ffffff" stroke-width="3.2" stroke-linecap="butt"/>
  <line x1="458.8" y1="165.7" x2="471.6" y2="160.0" stroke="#ffffff" stroke-width="2.0" stroke-linecap="butt"/>
  <line x1="467.1" y1="187.4" x2="480.4" y2="183.1" stroke="#ffffff" stroke-width="2.0" stroke-linecap="butt"/>
  <line x1="473.1" y1="209.8" x2="486.8" y2="206.9" stroke="#ffffff" stroke-width="2.0" stroke-linecap="butt"/>
  <line x1="476.8" y1="232.8" x2="490.7" y2="231.3" stroke="#ffffff" stroke-width="2.0" stroke-linecap="butt"/>
  <line x1="478.0" y1="256.0" x2="492.0" y2="256.0" stroke="#ffffff" stroke-width="3.2" stroke-linecap="butt"/>
  <line x1="476.8" y1="279.2" x2="490.7" y2="280.7" stroke="#ffffff" stroke-width="2.0" stroke-linecap="butt"/>
  <line x1="473.1" y1="302.2" x2="486.8" y2="305.1" stroke="#ffffff" stroke-width="2.0" stroke-linecap="butt"/>
  <line x1="467.1" y1="324.6" x2="480.4" y2="328.9" stroke="#ffffff" stroke-width="2.0" stroke-linecap="butt"/>
  <line x1="458.8" y1="346.3" x2="471.6" y2="352.0" stroke="#ffffff" stroke-width="2.0" stroke-linecap="butt"/>
  <line x1="448.3" y1="367.0" x2="460.4" y2="374.0" stroke="#ffffff" stroke-width="3.2" stroke-linecap="butt"/>
  <line x1="435.6" y1="386.5" x2="446.9" y2="394.7" stroke="#ffffff" stroke-width="2.0" stroke-linecap="butt"/>
  <line x1="421.0" y1="404.5" x2="431.4" y2="413.9" stroke="#ffffff" stroke-width="2.0" stroke-linecap="butt"/>
  <line x1="404.5" y1="421.0" x2="413.9" y2="431.4" stroke="#ffffff" stroke-width="2.0" stroke-linecap="butt"/>
  <line x1="386.5" y1="435.6" x2="394.7" y2="446.9" stroke="#ffffff" stroke-width="2.0" stroke-linecap="butt"/>
  <line x1="367.0" y1="448.3" x2="374.0" y2="460.4" stroke="#ffffff" stroke-width="3.2" stroke-linecap="butt"/>
  <line x1="346.3" y1="458.8" x2="352.0" y2="471.6" stroke="#ffffff" stroke-width="2.0" stroke-linecap="butt"/>
  <line x1="324.6" y1="467.1" x2="328.9" y2="480.4" stroke="#ffffff" stroke-width="2.0" stroke-linecap="butt"/>
  <line x1="302.2" y1="473.1" x2="305.1" y2="486.8" stroke="#ffffff" stroke-width="2.0" stroke-linecap="butt"/>
  <line x1="279.2" y1="476.8" x2="280.7" y2="490.7" stroke="#ffffff" stroke-width="2.0" stroke-linecap="butt"/>
  <line x1="256.0" y1="478.0" x2="256.0" y2="492.0" stroke="#ffffff" stroke-width="3.2" stroke-linecap="butt"/>
  <line x1="232.8" y1="476.8" x2="231.3" y2="490.7" stroke="#ffffff" stroke-width="2.0" stroke-linecap="butt"/>
  <line x1="209.8" y1="473.1" x2="206.9" y2="486.8" stroke="#ffffff" stroke-width="2.0" stroke-linecap="butt"/>
  <line x1="187.4" y1="467.1" x2="183.1" y2="480.4" stroke="#ffffff" stroke-width="2.0" stroke-linecap="butt"/>
  <line x1="165.7" y1="458.8" x2="160.0" y2="471.6" stroke="#ffffff" stroke-width="2.0" stroke-linecap="butt"/>
  <line x1="145.0" y1="448.3" x2="138.0" y2="460.4" stroke="#ffffff" stroke-width="3.2" stroke-linecap="butt"/>
  <line x1="125.5" y1="435.6" x2="117.3" y2="446.9" stroke="#ffffff" stroke-width="2.0" stroke-linecap="butt"/>
  <line x1="107.5" y1="421.0" x2="98.1" y2="431.4" stroke="#ffffff" stroke-width="2.0" stroke-linecap="butt"/>
  <line x1="91.0" y1="404.5" x2="80.6" y2="413.9" stroke="#ffffff" stroke-width="2.0" stroke-linecap="butt"/>
  <line x1="76.4" y1="386.5" x2="65.1" y2="394.7" stroke="#ffffff" stroke-width="2.0" stroke-linecap="butt"/>
  <line x1="63.7" y1="367.0" x2="51.6" y2="374.0" stroke="#ffffff" stroke-width="3.2" stroke-linecap="butt"/>
  <line x1="53.2" y1="346.3" x2="40.4" y2="352.0" stroke="#ffffff" stroke-width="2.0" stroke-linecap="butt"/>
  <line x1="44.9" y1="324.6" x2="31.6" y2="328.9" stroke="#ffffff" stroke-width="2.0" stroke-linecap="butt"/>
  <line x1="38.9" y1="302.2" x2="25.2" y2="305.1" stroke="#ffffff" stroke-width="2.0" stroke-linecap="butt"/>
  <line x1="35.2" y1="279.2" x2="21.3" y2="280.7" stroke="#ffffff" stroke-width="2.0" stroke-linecap="butt"/>
  <line x1="34.0" y1="256.0" x2="20.0" y2="256.0" stroke="#ffffff" stroke-width="3.2" stroke-linecap="butt"/>
  <line x1="35.2" y1="232.8" x2="21.3" y2="231.3" stroke="#ffffff" stroke-width="2.0" stroke-linecap="butt"/>
  <line x1="38.9" y1="209.8" x2="25.2" y2="206.9" stroke="#ffffff" stroke-width="2.0" stroke-linecap="butt"/>
  <line x1="44.9" y1="187.4" x2="31.6" y2="183.1" stroke="#ffffff" stroke-width="2.0" stroke-linecap="butt"/>
  <line x1="53.2" y1="165.7" x2="40.4" y2="160.0" stroke="#ffffff" stroke-width="2.0" stroke-linecap="butt"/>
  <line x1="63.7" y1="145.0" x2="51.6" y2="138.0" stroke="#ffffff" stroke-width="3.2" stroke-linecap="butt"/>
  <line x1="76.4" y1="125.5" x2="65.1" y2="117.3" stroke="#ffffff" stroke-width="2.0" stroke-linecap="butt"/>
  <line x1="91.0" y1="107.5" x2="80.6" y2="98.1" stroke="#ffffff" stroke-width="2.0" stroke-linecap="butt"/>
  <line x1="107.5" y1="91.0" x2="98.1" y2="80.6" stroke="#ffffff" stroke-width="2.0" stroke-linecap="butt"/>
  <line x1="125.5" y1="76.4" x2="117.3" y2="65.1" stroke="#ffffff" stroke-width="2.0" stroke-linecap="butt"/>
  <line x1="145.0" y1="63.7" x2="138.0" y2="51.6" stroke="#ffffff" stroke-width="3.2" stroke-linecap="butt"/>
  <line x1="165.7" y1="53.2" x2="160.0" y2="40.4" stroke="#ffffff" stroke-width="2.0" stroke-linecap="butt"/>
  <line x1="187.4" y1="44.9" x2="183.1" y2="31.6" stroke="#ffffff" stroke-width="2.0" stroke-linecap="butt"/>
  <line x1="209.8" y1="38.9" x2="206.9" y2="25.2" stroke="#ffffff" stroke-width="2.0" stroke-linecap="butt"/>
  <line x1="232.8" y1="35.2" x2="231.3" y2="21.3" stroke="#ffffff" stroke-width="2.0" stroke-linecap="butt"/>
  <circle cx="256" cy="256" r="118" fill="none" stroke="#ffffff" stroke-width="2.2"/>
  <path d="M 256.0 178.0 L 273.6 225.6 L 323.5 217.0 L 291.1 256.0 L 323.5 295.0 L 273.6 286.4 L 256.0 334.0 L 238.5 286.4 L 188.5 295.0 L 220.9 256.0 L 188.5 217.0 L 238.4 225.6 Z" class="ink"/>
  <circle cx="256.0" cy="204.0" r="24" fill="none" stroke="#ffffff" stroke-width="2"/>
  <circle cx="308.0" cy="256.0" r="24" fill="none" stroke="#ffffff" stroke-width="2"/>
  <circle cx="256.0" cy="308.0" r="24" fill="none" stroke="#ffffff" stroke-width="2"/>
  <circle cx="204.0" cy="256.0" r="24" fill="none" stroke="#ffffff" stroke-width="2"/>
  <path d="M256 236 C248 248 244 258 244 268 C244 276 250 282 256 282 C262 282 268 276 268 268 C268 258 264 248 256 236 Z" class="ink-fill"/>
  <path d="M256 214 L256 292 M246 252 C240 246 236 238 236 230 C236 222 244 218 250 224 C252 226 254 228 256 230 C258 228 260 226 262 224 C268 218 276 222 276 230 C276 238 272 246 266 252 Z" class="ink"/>
  <circle cx="256" cy="256" r="10" fill="none" stroke="#ffffff" stroke-width="2"/>
  <g transform="translate(302.6,82.1)" stroke="#ffffff" stroke-width="1.6"><path d="M0,-7 L0,7 M-7,0 L7,0 M-4.9,-4.9 L4.9,4.9 M-4.9,4.9 L4.9,-4.9"/></g>
  <g transform="translate(383.3,128.7)" stroke="#ffffff" stroke-width="1.6"><path d="M0,-7 L0,7 M-7,0 L7,0 M-4.9,-4.9 L4.9,4.9 M-4.9,4.9 L4.9,-4.9"/></g>
  <g transform="translate(429.9,209.4)" stroke="#ffffff" stroke-width="1.6"><path d="M0,-7 L0,7 M-7,0 L7,0 M-4.9,-4.9 L4.9,4.9 M-4.9,4.9 L4.9,-4.9"/></g>
  <g transform="translate(429.9,302.6)" stroke="#ffffff" stroke-width="1.6"><path d="M0,-7 L0,7 M-7,0 L7,0 M-4.9,-4.9 L4.9,4.9 M-4.9,4.9 L4.9,-4.9"/></g>
  <g transform="translate(383.3,383.3)" stroke="#ffffff" stroke-width="1.6"><path d="M0,-7 L0,7 M-7,0 L7,0 M-4.9,-4.9 L4.9,4.9 M-4.9,4.9 L4.9,-4.9"/></g>
  <g transform="translate(302.6,429.9)" stroke="#ffffff" stroke-width="1.6"><path d="M0,-7 L0,7 M-7,0 L7,0 M-4.9,-4.9 L4.9,4.9 M-4.9,4.9 L4.9,-4.9"/></g>
  <g transform="translate(209.4,429.9)" stroke="#ffffff" stroke-width="1.6"><path d="M0,-7 L0,7 M-7,0 L7,0 M-4.9,-4.9 L4.9,4.9 M-4.9,4.9 L4.9,-4.9"/></g>
  <g transform="translate(128.7,383.3)" stroke="#ffffff" stroke-width="1.6"><path d="M0,-7 L0,7 M-7,0 L7,0 M-4.9,-4.9 L4.9,4.9 M-4.9,4.9 L4.9,-4.9"/></g>
  <g transform="translate(82.1,302.6)" stroke="#ffffff" stroke-width="1.6"><path d="M0,-7 L0,7 M-7,0 L7,0 M-4.9,-4.9 L4.9,4.9 M-4.9,4.9 L4.9,-4.9"/></g>
  <g transform="translate(82.1,209.4)" stroke="#ffffff" stroke-width="1.6"><path d="M0,-7 L0,7 M-7,0 L7,0 M-4.9,-4.9 L4.9,4.9 M-4.9,4.9 L4.9,-4.9"/></g>
  <g transform="translate(128.7,128.7)" stroke="#ffffff" stroke-width="1.6"><path d="M0,-7 L0,7 M-7,0 L7,0 M-4.9,-4.9 L4.9,4.9 M-4.9,4.9 L4.9,-4.9"/></g>
  <g transform="translate(209.4,82.1)" stroke="#ffffff" stroke-width="1.6"><path d="M0,-7 L0,7 M-7,0 L7,0 M-4.9,-4.9 L4.9,4.9 M-4.9,4.9 L4.9,-4.9"/></g>
  </g>
  <g id="numeral-glyphs">
    <g id="numeral-0"><text x="-120" y="32" text-anchor="middle" dominant-baseline="middle" font-family="DejaVu Serif" font-size="34" font-weight="bold" fill="#ffffff">XII</text></g>
    <g id="numeral-1"><text x="-120" y="72" text-anchor="middle" dominant-baseline="middle" font-family="DejaVu Serif" font-size="34" font-weight="bold" fill="#ffffff">I</text></g>
    <g id="numeral-2"><text x="-120" y="112" text-anchor="middle" dominant-baseline="middle" font-family="DejaVu Serif" font-size="34" font-weight="bold" fill="#ffffff">II</text></g>
    <g id="numeral-3"><text x="-120" y="152" text-anchor="middle" dominant-baseline="middle" font-family="DejaVu Serif" font-size="34" font-weight="bold" fill="#ffffff">III</text></g>
    <g id="numeral-4"><text x="-120" y="192" text-anchor="middle" dominant-baseline="middle" font-family="DejaVu Serif" font-size="34" font-weight="bold" fill="#ffffff">IV</text></g>
    <g id="numeral-5"><text x="-120" y="232" text-anchor="middle" dominant-baseline="middle" font-family="DejaVu Serif" font-size="34" font-weight="bold" fill="#ffffff">V</text></g>
    <g id="numeral-6"><text x="-120" y="272" text-anchor="middle" dominant-baseline="middle" font-family="DejaVu Serif" font-size="34" font-weight="bold" fill="#ffffff">VI</text></g>
    <g id="numeral-7"><text x="-120" y="312" text-anchor="middle" dominant-baseline="middle" font-family="DejaVu Serif" font-size="34" font-weight="bold" fill="#ffffff">VII</text></g>
    <g id="numeral-8"><text x="-120" y="352" text-anchor="middle" dominant-baseline="middle" font-family="DejaVu Serif" font-size="34" font-weight="bold" fill="#ffffff">VIII</text></g>
    <g id="numeral-9"><text x="-120" y="392" text-anchor="middle" dominant-baseline="middle" font-family="DejaVu Serif" font-size="34" font-weight="bold" fill="#ffffff">IX</text></g>
    <g id="numeral-10"><text x="-120" y="432" text-anchor="middle" dominant-baseline="middle" font-family="DejaVu Serif" font-size="34" font-weight="bold" fill="#ffffff">X</text></g>
    <g id="numeral-11"><text x="-120" y="472" text-anchor="middle" dominant-baseline="middle" font-family="DejaVu Serif" font-size="34" font-weight="bold" fill="#ffffff">XI</text></g>
  </g>
</svg>
