<?xml version="1.0" encoding="UTF-8"?>
<svg width="24" height="24" viewBox="0 0 24 24" xmlns="http://www.w3.org/2000/svg">
  <!-- Detailed Aquarius water bearer with waves -->
  <circle cx="12" cy="12" r="10.5" fill="#00ACC1"/>
  <circle cx="12" cy="12" r="9" fill="none" stroke="#B2EBF2" stroke-width="1.2"/>
  <!-- Person figure -->
  <circle cx="10" cy="8" r="1.5" fill="#4DD0E1"/>
  <path d="M10 9.5 L10 14" fill="none" stroke="#4DD0E1" stroke-width="2"/>
  <!-- Arms holding jug -->
  <path d="M8 10 Q6 12 7 14" fill="none" stroke="#4DD0E1" stroke-width="1.5"/>
  <path d="M12 10 Q14 12 13 14" fill="none" stroke="#4DD0E1" stroke-width="1.5"/>
  <!-- Jug -->
  <path d="M6 14 Q5 16 7 17 Q9 16 8 14" fill="#80DEEA"/>
  <!-- Flowing water waves - multiple layers for detail -->
  <g stroke="#E0F7FA" stroke-width="1.8" stroke-linecap="round">
    <path d="M13 15 Q15 16 17 15 Q19 16 21 15"/>
    <path d="M13 17 Q15 18 17 17 Q19 18 21 17"/>
    <path d="M13 19 Q15 20 17 19 Q19 20 21 19"/>
  </g>
</svg>