<?xml version="1.0" encoding="UTF-8"?>
<svg width="24" height="24" viewBox="0 0 24 24" xmlns="http://www.w3.org/2000/svg">
  <!-- Highly detailed overcast cloud - multiple overlapping puffs, shading, highlights for volume and room visibility -->
  <!-- Base dark layer -->
  <path d="M3 14 Q2 18 7 18.5 Q11 20.5 16 18.5 Q19 17 18 14.5 Q15.5 13 12 14" fill="#546E7A"/>
  <!-- Mid layers for depth -->
  <path d="M4 12 Q3 15.5 7.5 15.8 Q12 17.5 16.5 15.8 Q19 14.5 18 12.5" fill="#78909C"/>
  <path d="M5 10 Q4.5 13 8 13.2 Q12.5 14.5 16 13" fill="#90A4AE"/>
  <!-- Lighter top highlights -->
  <path d="M6 9 Q5.5 11 8.5 11.5 Q12 12.5 15 11.2 Q17 10.5 16 9.5" fill="#B0BEC5" opacity="0.9"/>
  <!-- Subtle edge definition -->
  <path d="M3 14 Q2 18 7 18.5 Q11 20.5 16 18.5 Q19 17 18 14.5" fill="none" stroke="#37474F" stroke-width="1.2"/>
</svg>